<svg width="242" height="242" viewBox="0 0 242 242" fill="none" xmlns="http://www.w3.org/2000/svg">
<path d="M127.323 213V234.818H114.155V232.474H124.681V225.102H114.837V222.759H124.681V215.344H113.985V213H127.323Z" fill="black"/>
<path d="M105.555 228.312L102.856 221.043L97.8335 226.95L94.9798 226.447L101.604 219.307L97.8213 210.332L100.675 210.835L103.433 217.769L108.397 212.197L111.25 212.7L104.71 219.855L108.409 228.815L105.555 228.312Z" fill="black"/>
<path d="M97.5901 203.854L89.8946 224.997L87.6121 224.166L88.5012 221.723L88.2209 221.621C87.9502 221.825 87.586 222.078 87.1284 222.38C86.6617 222.686 86.0785 222.897 85.3789 223.013C84.6701 223.133 83.8152 223.011 82.8141 222.646C81.5193 222.175 80.4959 221.436 79.7438 220.429C78.9917 219.422 78.5548 218.224 78.4333 216.834C78.3117 215.445 78.5449 213.943 79.1327 212.327C79.7254 210.699 80.5161 209.388 81.5049 208.395C82.4912 207.409 83.5939 206.767 84.8131 206.47C86.0298 206.18 87.2788 206.268 88.5602 206.734C89.548 207.094 90.2793 207.545 90.7543 208.089C91.2268 208.638 91.5467 209.182 91.714 209.719C91.8789 210.263 91.9971 210.706 92.0686 211.05L92.2688 211.123L95.2275 202.994L97.5901 203.854ZM90.3704 216.463C90.7931 215.302 90.9958 214.215 90.9785 213.204C90.9587 212.199 90.713 211.327 90.2411 210.589C89.7668 209.857 89.0558 209.318 88.1081 208.973C87.1204 208.614 86.2014 208.574 85.3512 208.854C84.4919 209.139 83.7339 209.664 83.0771 210.43C82.4112 211.2 81.8791 212.133 81.4807 213.227C81.0872 214.309 80.8994 215.344 80.9173 216.333C80.9261 217.326 81.1719 218.198 81.6547 218.948C82.1284 219.702 82.8658 220.262 83.8669 220.626C84.8279 220.976 85.7241 221.026 86.5555 220.777C87.3844 220.535 88.1236 220.04 88.7731 219.294C89.4202 218.555 89.9526 217.611 90.3704 216.463Z" fill="black"/>
<path d="M63.0034 218.942L73.9125 200.046L76.0898 201.304L65.1808 220.199L63.0034 218.942Z" fill="black"/>
<path d="M62.0837 191.216C63.2153 192.165 63.9823 193.268 64.3845 194.523C64.7813 195.774 64.8128 197.085 64.4789 198.455C64.1396 199.82 63.4267 201.151 62.3402 202.445C61.2446 203.751 60.0515 204.692 58.7609 205.269C57.465 205.841 56.1667 206.041 54.866 205.867C53.5598 205.689 52.3409 205.125 51.2093 204.175C50.0776 203.226 49.3134 202.126 48.9166 200.875C48.5144 199.62 48.4852 198.306 48.829 196.935C49.1674 195.56 49.8845 194.219 50.9801 192.913C52.0667 191.618 53.2556 190.688 54.547 190.121C55.833 189.55 57.129 189.353 58.4352 189.531C59.7359 189.705 60.952 190.266 62.0837 191.216ZM60.6319 192.946C59.7723 192.225 58.8801 191.851 57.9554 191.827C57.0307 191.802 56.1337 192.036 55.2645 192.531C54.3953 193.025 53.6092 193.691 52.9061 194.529C52.2031 195.367 51.6812 196.26 51.3407 197.207C51.0001 198.154 50.9201 199.084 51.1007 199.996C51.2813 200.907 51.8014 201.724 52.661 202.445C53.5206 203.167 54.4151 203.537 55.3444 203.557C56.2737 203.576 57.1752 203.336 58.049 202.836C58.9228 202.336 59.7112 201.667 60.4142 200.829C61.1173 199.991 61.6368 199.102 61.9728 198.16C62.3088 197.218 62.3843 196.294 62.1991 195.387C62.014 194.481 61.4916 193.667 60.6319 192.946Z" fill="black"/>
<path d="M52.6322 182.649L40.0969 193.167L38.5356 191.307L40.429 189.718L40.3194 189.587C39.5074 189.879 38.6572 189.888 37.7687 189.614C36.8803 189.339 36.121 188.827 35.491 188.076C35.3723 187.935 35.2267 187.755 35.0541 187.539C34.8815 187.322 34.755 187.155 34.6745 187.037L36.6332 185.393C36.6716 185.472 36.7727 185.642 36.9364 185.904C37.09 186.164 37.2741 186.422 37.4887 186.678C38 187.287 38.5844 187.724 39.2418 187.988C39.8893 188.252 40.5525 188.335 41.2314 188.238C41.9004 188.14 42.5178 187.854 43.0836 187.379L51.0161 180.723L52.6322 182.649Z" fill="black"/>
<path d="M41.4052 166.456C42.1935 167.821 42.5722 169.173 42.5411 170.512C42.5004 171.847 42.0902 173.097 41.3104 174.261C40.521 175.422 39.4005 176.421 37.9489 177.259C36.4973 178.097 35.0653 178.571 33.6528 178.682C32.2305 178.789 30.9336 178.546 29.7619 177.951C28.5806 177.354 27.6206 176.415 26.8819 175.136C26.4558 174.398 26.158 173.598 25.9886 172.736C25.8191 171.875 25.8407 170.989 26.0534 170.079C26.2599 169.172 26.714 168.283 27.4157 167.41C28.1175 166.538 29.1296 165.719 30.452 164.956L31.3746 164.423L37.6814 175.347L35.7993 176.434L30.7709 167.724C29.9713 168.186 29.3501 168.758 28.9074 169.44C28.4611 170.116 28.2252 170.851 28.1997 171.644C28.1706 172.432 28.3833 173.22 28.8379 174.007C29.3386 174.874 29.9871 175.5 30.7834 175.885C31.57 176.268 32.4024 176.431 33.2804 176.375C34.1585 176.319 34.9881 176.066 35.7692 175.615L37.024 174.89C38.0942 174.272 38.8949 173.564 39.4261 172.765C39.9475 171.964 40.2102 171.119 40.2142 170.231C40.212 169.347 39.9571 168.465 39.4492 167.585C39.119 167.013 38.7407 166.543 38.3145 166.174C37.8785 165.802 37.3999 165.541 36.8786 165.391C36.3511 165.245 35.7881 165.221 35.1895 165.321L34.5655 162.876C35.4068 162.686 36.249 162.696 37.0922 162.906C37.9291 163.12 38.7202 163.524 39.4655 164.119C40.2046 164.717 40.8512 165.496 41.4052 166.456Z" fill="black"/>
<path d="M31.4956 143.202L10.0089 146.991L7.72238 134.023L10.0305 133.616L11.8583 143.982L19.1184 142.702L17.4091 133.008L19.7172 132.601L21.4266 142.295L28.7287 141.007L26.8714 130.474L29.1795 130.067L31.4956 143.202Z" fill="black"/>
<path d="M29.3409 119.93C29.3409 121.464 28.9787 122.785 28.2543 123.893C27.5298 125.001 26.532 125.853 25.2607 126.45C23.9893 127.047 22.5369 127.345 20.9034 127.345C19.2415 127.345 17.7749 127.039 16.5036 126.429C15.2251 125.811 14.2273 124.951 13.5099 123.85C12.7855 122.743 12.4233 121.45 12.4233 119.973C12.4233 118.822 12.6364 117.785 13.0625 116.862C13.4886 115.939 14.0852 115.182 14.8523 114.593C15.6193 114.003 16.5142 113.637 17.5369 113.495V116.01C16.7912 116.201 16.1307 116.627 15.5554 117.288C14.973 117.941 14.6818 118.822 14.6818 119.93C14.6818 120.91 14.9375 121.77 15.4489 122.508C15.9531 123.24 16.6669 123.811 17.5902 124.223C18.5064 124.628 19.5824 124.831 20.8182 124.831C22.0824 124.831 23.1832 124.632 24.1207 124.234C25.0582 123.829 25.7862 123.261 26.3047 122.529C26.8232 121.791 27.0824 120.924 27.0824 119.93C27.0824 119.277 26.9688 118.684 26.7415 118.151C26.5142 117.618 26.1875 117.167 25.7614 116.798C25.3352 116.429 24.8239 116.166 24.2273 116.01V113.495C25.1932 113.637 26.0632 113.989 26.8374 114.55C27.6044 115.104 28.2152 115.839 28.6697 116.755C29.1172 117.664 29.3409 118.723 29.3409 119.93Z" fill="black"/>
<path d="M30.7332 105.085C30.4767 106.54 29.9054 107.755 29.0193 108.731C28.1344 109.7 27.0153 110.383 25.6617 110.779C24.3094 111.168 22.801 111.215 21.1363 110.922C19.4577 110.626 18.046 110.063 16.9013 109.234C15.7578 108.398 14.9361 107.373 14.436 106.16C13.9372 104.94 13.8161 103.602 14.0726 102.147C14.3291 100.692 14.8998 99.4804 15.7846 98.5114C16.6707 97.5354 17.7934 96.8535 19.1527 96.4657C20.5132 96.071 22.0328 96.0216 23.7114 96.3176C25.3761 96.6111 26.7767 97.1754 27.9131 98.0104C29.0508 98.8385 29.8691 99.8626 30.3679 101.083C30.8679 102.296 30.9897 103.63 30.7332 105.085ZM28.509 104.693C28.7038 103.588 28.5809 102.628 28.1401 101.815C27.6994 101.002 27.0476 100.342 26.1848 99.8368C25.322 99.3313 24.352 98.9835 23.2748 98.7936C22.1977 98.6037 21.1638 98.5981 20.1731 98.7768C19.1824 98.9554 18.3374 99.3509 17.6381 99.9632C16.9388 100.576 16.4917 101.434 16.2968 102.539C16.1019 103.644 16.2284 104.604 16.6761 105.419C17.1239 106.233 17.7826 106.894 18.6525 107.401C19.5223 107.908 20.4958 108.256 21.5729 108.446C22.65 108.636 23.6804 108.641 24.6641 108.461C25.6478 108.281 26.4858 107.884 27.1782 107.271C27.8705 106.657 28.3141 105.798 28.509 104.693Z" fill="black"/>
<path d="M24.6862 79.5009L24.5144 81.8419C24.1121 81.8466 23.6968 81.9184 23.2683 82.0572C22.8356 82.1869 22.429 82.4319 22.0485 82.7923C21.6679 83.1526 21.3525 83.6765 21.1023 84.3639C20.7598 85.3049 20.6913 86.168 20.8968 86.9533C21.098 87.7294 21.529 88.2377 22.1897 88.4782C22.777 88.692 23.3186 88.6472 23.8144 88.344C24.3102 88.0407 24.8368 87.4766 25.3941 86.6515L26.7854 84.5731C27.6195 83.3197 28.503 82.4811 29.4357 82.0572C30.3618 81.6309 31.3621 81.6133 32.4366 82.0044C33.3176 82.325 34.0128 82.8653 34.5223 83.6251C35.0342 84.3783 35.3264 85.2782 35.3989 86.325C35.4714 87.3717 35.2902 88.4924 34.8554 89.687C34.2846 91.2554 33.4717 92.4296 32.4169 93.2096C31.3621 93.9896 30.1308 94.2784 28.7231 94.0759L28.9787 91.6294C29.884 91.7171 30.6517 91.5392 31.2816 91.0959C31.914 90.6458 32.4064 89.9369 32.7586 88.9692C33.1594 87.868 33.244 86.9087 33.0125 86.0913C32.7767 85.2648 32.3284 84.7313 31.6677 84.4908C31.1338 84.2964 30.6186 84.3206 30.1222 84.5631C29.6191 84.8033 29.1365 85.2776 28.6746 85.9862L27.1411 88.3304C26.2949 89.6172 25.4011 90.4634 24.4599 90.869C23.5144 91.2656 22.5111 91.2708 21.4499 90.8845C20.5823 90.5687 19.9035 90.0458 19.4134 89.3157C18.9257 88.5789 18.646 87.7175 18.574 86.7314C18.5046 85.7387 18.6666 84.7017 19.0601 83.6206C19.6139 82.0989 20.3824 81.0257 21.3656 80.401C22.3512 79.7696 23.4581 79.4696 24.6862 79.5009Z" fill="black"/>
<path d="M44.6753 81.4709C44.4623 81.84 44.2415 82.1513 44.0131 82.4049C43.7909 82.662 43.6201 82.8299 43.5008 82.9087L41.9014 81.2472C42.3421 80.7963 42.6612 80.3573 42.8587 79.93C43.0561 79.5028 43.0824 79.0382 42.9375 78.5363C42.8024 78.0318 42.4513 77.4396 41.8844 76.7596L41.0116 75.7144L23.7409 72.7304L25.1045 70.3686L38.6558 72.9766L38.7411 72.8289L29.7068 62.3972L31.0705 60.0353L43.8354 75.4257C44.4111 76.1189 44.8234 76.8039 45.0724 77.4807C45.3274 78.1611 45.4191 78.8332 45.3475 79.4971C45.2794 80.1549 45.0553 80.8128 44.6753 81.4709Z" fill="black"/>
<path d="M44.6882 49.0624L43.7261 51.2034C43.3464 51.0702 42.9316 50.9956 42.4815 50.9795C42.0305 50.9534 41.5646 51.0446 41.0838 51.253C40.6029 51.4615 40.1274 51.8459 39.6572 52.4063C39.0135 53.1734 38.6539 53.9611 38.5784 54.7692C38.502 55.5674 38.7332 56.1924 39.2718 56.6444C39.7506 57.0461 40.2748 57.1893 40.8444 57.0739C41.4141 56.9586 42.1018 56.6085 42.9077 56.0238L44.926 54.5466C46.1385 53.6541 47.2555 53.1682 48.2769 53.0889C49.293 53.005 50.239 53.3306 51.1149 54.0656C51.8331 54.6682 52.3016 55.4137 52.5205 56.302C52.7439 57.1848 52.7107 58.1304 52.4208 59.1388C52.1309 60.1472 51.5774 61.1384 50.7602 62.1122C49.6874 63.3908 48.522 64.2162 47.264 64.5884C46.006 64.9606 44.7502 64.8108 43.4967 64.1391L44.5736 61.9276C45.3943 62.3196 46.1765 62.415 46.9201 62.2138C47.6683 62.0072 48.3734 61.5094 49.0354 60.7205C49.7886 59.8228 50.1963 58.9503 50.2582 58.103C50.3193 57.2457 50.0806 56.591 49.542 56.1391C49.1067 55.7739 48.6144 55.6203 48.0649 55.6785C47.51 55.7321 46.8943 56.0128 46.2179 56.5206L43.9752 58.199C42.7399 59.1187 41.6106 59.6082 40.5874 59.6675C39.5633 59.7167 38.6187 59.3784 37.7536 58.6526C37.0463 58.0591 36.5873 57.3355 36.3765 56.4818C36.1702 55.6227 36.202 54.7175 36.4716 53.7663C36.7459 52.8097 37.2528 51.8907 37.9923 51.0093C39.0332 49.7688 40.1224 49.0232 41.26 48.7725C42.4021 48.5163 43.5448 48.6129 44.6882 49.0624Z" fill="black"/>
<path d="M54.7682 35.1164L56.1377 36.7486L49.6416 42.1995L48.272 40.5673L54.7682 35.1164ZM47.6454 35.9754L49.5713 34.3593L59.5966 46.3069C60.0532 46.851 60.4744 47.1929 60.8605 47.3325C61.2474 47.4621 61.6048 47.4682 61.9327 47.3507C62.2614 47.2232 62.5673 47.0407 62.8502 46.8033C63.0624 46.6253 63.2273 46.4683 63.3451 46.3324C63.4583 46.1911 63.5488 46.078 63.6168 45.9932L65.4602 47.3946C65.3707 47.5532 65.2296 47.7551 65.0367 48.0004C64.8484 48.2511 64.5747 48.5271 64.2156 48.8284C63.6716 49.2849 63.0402 49.6153 62.3216 49.8196C61.6085 50.0194 60.8796 50.0237 60.1351 49.8325C59.3961 49.6368 58.7207 49.1744 58.1089 48.4453L47.6454 35.9754Z" fill="black"/>
<path d="M75.5441 41.4052C74.1787 42.1935 72.8268 42.5722 71.4885 42.5411C70.1528 42.5004 68.9031 42.0902 67.7395 41.3104C66.5784 40.521 65.5788 39.4005 64.7408 37.9489C63.9027 36.4973 63.4286 35.0653 63.3183 33.6528C63.2107 32.2305 63.4542 30.9336 64.0489 29.7619C64.6462 28.5806 65.5845 27.6206 66.8639 26.8819C67.602 26.4558 68.4019 26.158 69.2635 25.9886C70.1252 25.8191 71.0111 25.8407 71.9212 26.0534C72.8277 26.2599 73.7173 26.714 74.5899 27.4157C75.4625 28.1175 76.2805 29.1296 77.044 30.452L77.5767 31.3746L66.653 37.6814L65.5663 35.7993L74.2758 30.7709C73.8141 29.9713 73.2423 29.3501 72.5602 28.9074C71.8843 28.4611 71.1495 28.2252 70.3556 28.1997C69.5679 28.1706 68.7804 28.3833 67.9931 28.8379C67.1259 29.3386 66.4998 29.9871 66.1148 30.7834C65.7325 31.57 65.5693 32.4024 65.6251 33.2804C65.681 34.1585 65.9345 34.9881 66.3855 35.7692L67.1099 37.024C67.7278 38.0942 68.4361 38.8949 69.2348 39.4261C70.0362 39.9475 70.8808 40.2102 71.7688 40.2142C72.6533 40.212 73.5353 39.9571 74.4149 39.4492C74.9869 39.119 75.4574 38.7407 75.8264 38.3145C76.1979 37.8785 76.4588 37.3999 76.6088 36.8786C76.7554 36.3511 76.7789 35.7881 76.6793 35.1895L79.1237 34.5655C79.3143 35.4068 79.3043 36.249 79.094 37.0922C78.8802 37.9291 78.4758 38.7202 77.881 39.4655C77.2826 40.2046 76.5036 40.8512 75.5441 41.4052Z" fill="black"/>
<path d="M79.9155 38.0492L74.3188 22.6724L76.6013 21.8416L77.4758 24.2443L77.676 24.1714C77.6976 23.2339 77.9828 22.4083 78.5317 21.6945C79.0782 20.9741 79.852 20.4317 80.8531 20.0674C81.8676 19.6981 82.7956 19.6211 83.6373 19.8363C84.4832 20.0423 85.2458 20.4866 85.925 21.169L86.0852 21.1107C86.1899 20.1732 86.551 19.3275 87.1684 18.5737C87.7835 17.8132 88.6416 17.2326 89.7428 16.8318C91.1177 16.3314 92.3989 16.3525 93.5866 16.8953C94.7718 17.4313 95.6935 18.6036 96.3518 20.4123L100.098 30.7035L97.7349 31.5634L93.9892 21.2722C93.5763 20.1376 92.9708 19.4397 92.1728 19.1784C91.3748 18.9171 90.5553 18.9395 89.7144 19.2456C88.6332 19.6391 87.9147 20.271 87.5588 21.1412C87.2004 22.0048 87.2022 22.9338 87.5641 23.9282L91.2078 33.9391L88.8052 34.8136L84.972 24.2821C84.6538 23.4078 84.1139 22.8069 83.3523 22.4795C82.5883 22.1454 81.7591 22.1411 80.8648 22.4666C80.2508 22.6901 79.7363 23.0625 79.3214 23.5838C78.9132 24.1028 78.6513 24.7121 78.5356 25.4117C78.4241 26.1023 78.5056 26.8246 78.7801 27.5788L82.2781 37.1893L79.9155 38.0492Z" fill="black"/>
<path d="M105.549 30.4783C105.031 30.5695 104.555 30.4625 104.119 30.1572C103.682 29.8518 103.419 29.4404 103.328 28.9228C103.236 28.4052 103.343 27.9284 103.649 27.4923C103.954 27.0562 104.365 26.7926 104.883 26.7013C105.401 26.61 105.877 26.7171 106.313 27.0224C106.75 27.3277 107.013 27.7392 107.104 28.2568C107.165 28.5995 107.133 28.9297 107.009 29.2473C106.891 29.5637 106.705 29.8345 106.449 30.06C106.199 30.2772 105.899 30.4166 105.549 30.4783Z" fill="black"/>
<path d="M114.677 29V7.18182L127.845 7.18182V9.52557L117.319 9.52557V16.8977L127.163 16.8977V19.2415L117.319 19.2415V26.6562L128.015 26.6563V29L114.677 29Z" fill="black"/>
<path d="M136.445 13.688L139.144 20.9575L144.167 15.0496L147.02 15.5527L140.396 22.6927L144.179 31.6678L141.325 31.1646L138.567 24.2308L133.603 29.803L130.75 29.2998L137.29 22.1451L133.591 13.1848L136.445 13.688Z" fill="black"/>
<path d="M144.41 38.1463L152.105 17.0033L154.388 17.834L153.499 20.2767L153.779 20.3787C154.05 20.1749 154.414 19.922 154.872 19.6199C155.338 19.3136 155.921 19.1027 156.621 18.987C157.33 18.867 158.185 18.9892 159.186 19.3536C160.481 19.8249 161.504 20.5639 162.256 21.5708C163.008 22.5777 163.445 23.7759 163.567 25.1655C163.688 26.5551 163.455 28.0574 162.867 29.6725C162.275 31.301 161.484 32.6117 160.495 33.6047C159.509 34.5911 158.406 35.2327 157.187 35.5297C155.97 35.82 154.721 35.7319 153.44 35.2655C152.452 34.906 151.721 34.4547 151.246 33.9115C150.773 33.3616 150.453 32.8181 150.286 32.281C150.121 31.7373 150.003 31.2937 149.931 30.9502L149.731 30.8774L146.773 39.0062L144.41 38.1463ZM151.63 25.537C151.207 26.6983 151.004 27.7846 151.022 28.7962C151.041 29.801 151.287 30.6727 151.759 31.4113C152.233 32.1433 152.944 32.6817 153.892 33.0266C154.88 33.3861 155.799 33.4259 156.649 33.1458C157.508 32.8614 158.266 32.3362 158.923 31.57C159.589 30.7996 160.121 29.8671 160.519 28.7726C160.913 27.6914 161.101 26.6563 161.083 25.6672C161.074 24.6739 160.828 23.8022 160.345 23.052C159.872 22.2976 159.134 21.7383 158.133 21.3739C157.172 21.0241 156.276 20.9738 155.445 21.2229C154.616 21.4654 153.876 21.9597 153.227 22.7059C152.58 23.4454 152.047 24.3891 151.63 25.537Z" fill="black"/>
<path d="M178.997 23.0585L168.088 41.9536L165.91 40.6965L176.819 21.8014L178.997 23.0585Z" fill="black"/>
<path d="M179.916 50.7842C178.785 49.8346 178.018 48.7322 177.615 47.4768C177.219 46.226 177.187 44.9155 177.521 43.5453C177.86 42.1797 178.573 40.8495 179.66 39.5546C180.755 38.2488 181.949 37.3076 183.239 36.7309C184.535 36.1588 185.833 35.9595 187.134 36.133C188.44 36.3111 189.659 36.875 190.791 37.8246C191.922 38.7741 192.687 39.8743 193.083 41.1251C193.486 42.3805 193.515 43.6937 193.171 45.0648C192.833 46.4404 192.116 47.7811 191.02 49.0868C189.933 50.3817 188.744 51.3125 187.453 51.8792C186.167 52.4504 184.871 52.647 183.565 52.4689C182.264 52.2953 181.048 51.7338 179.916 50.7842ZM181.368 49.0541C182.228 49.7754 183.12 50.1485 184.045 50.1735C184.969 50.1984 185.866 49.9637 186.736 49.4692C187.605 48.9748 188.391 48.3086 189.094 47.4707C189.797 46.6329 190.319 45.7403 190.659 44.793C191 43.8457 191.08 42.9161 190.899 42.0043C190.719 41.0925 190.199 40.276 189.339 39.5547C188.479 38.8334 187.585 38.463 186.656 38.4434C185.726 38.4239 184.825 38.6641 183.951 39.164C183.077 39.6639 182.289 40.3328 181.586 41.1707C180.883 42.0085 180.363 42.8984 180.027 43.8403C179.691 44.7821 179.616 45.7062 179.801 46.6126C179.986 47.5189 180.508 48.3328 181.368 49.0541Z" fill="black"/>
<path d="M189.368 59.351L201.903 48.8326L203.464 50.6933L201.571 52.282L201.681 52.4126C202.493 52.1207 203.343 52.1119 204.231 52.3862C205.12 52.6606 205.879 53.1732 206.509 53.924C206.628 54.0654 206.773 54.2445 206.946 54.4613C207.119 54.678 207.245 54.8454 207.325 54.9633L205.367 56.6068C205.328 56.5278 205.227 56.3577 205.064 56.0963C204.91 55.8359 204.726 55.5778 204.511 55.3221C204 54.7127 203.416 54.2759 202.758 54.0117C202.111 53.7484 201.448 53.6651 200.769 53.762C200.1 53.8598 199.482 54.146 198.916 54.6208L190.984 61.277L189.368 59.351Z" fill="black"/>
<path d="M200.595 75.5441C199.806 74.1787 199.428 72.8268 199.459 71.4885C199.5 70.1528 199.91 68.9031 200.69 67.7395C201.479 66.5784 202.6 65.5788 204.051 64.7408C205.503 63.9027 206.935 63.4286 208.347 63.3183C209.769 63.2107 211.066 63.4542 212.238 64.0489C213.419 64.6462 214.379 65.5845 215.118 66.8639C215.544 67.602 215.842 68.4019 216.011 69.2635C216.181 70.1252 216.159 71.0111 215.947 71.9212C215.74 72.8277 215.286 73.7173 214.584 74.5899C213.883 75.4625 212.87 76.2805 211.548 77.044L210.625 77.5767L204.319 66.653L206.201 65.5663L211.229 74.2758C212.029 73.8141 212.65 73.2423 213.093 72.5602C213.539 71.8843 213.775 71.1495 213.8 70.3556C213.829 69.5679 213.617 68.7804 213.162 67.9931C212.661 67.1259 212.013 66.4998 211.217 66.1148C210.43 65.7325 209.598 65.5693 208.72 65.6251C207.842 65.681 207.012 65.9345 206.231 66.3855L204.976 67.1099C203.906 67.7278 203.105 68.4361 202.574 69.2348C202.052 70.0362 201.79 70.8808 201.786 71.7688C201.788 72.6533 202.043 73.5353 202.551 74.4149C202.881 74.9869 203.259 75.4574 203.686 75.8264C204.121 76.1979 204.6 76.4588 205.121 76.6088C205.649 76.7554 206.212 76.7789 206.81 76.6793L207.435 79.1237C206.593 79.3143 205.751 79.3043 204.908 79.094C204.071 78.8802 203.28 78.4758 202.534 77.881C201.795 77.2826 201.149 76.5036 200.595 75.5441Z" fill="black"/>
<path d="M210.504 98.7976L231.991 95.0089L234.278 107.977L231.969 108.383L230.142 98.0178L222.882 99.298L224.591 108.992L222.283 109.399L220.573 99.705L213.271 100.993L215.129 111.526L212.821 111.933L210.504 98.7976Z" fill="black"/>
<path d="M212.659 122.07C212.659 120.536 213.021 119.215 213.746 118.107C214.47 116.999 215.468 116.147 216.739 115.55C218.011 114.953 219.463 114.655 221.097 114.655C222.759 114.655 224.225 114.961 225.496 115.571C226.775 116.189 227.773 117.049 228.49 118.15C229.214 119.257 229.577 120.55 229.577 122.027C229.577 123.178 229.364 124.215 228.938 125.138C228.511 126.061 227.915 126.818 227.148 127.407C226.381 127.997 225.486 128.363 224.463 128.505V125.99C225.209 125.799 225.869 125.373 226.445 124.712C227.027 124.059 227.318 123.178 227.318 122.07C227.318 121.09 227.063 120.23 226.551 119.492C226.047 118.76 225.333 118.189 224.41 117.777C223.494 117.372 222.418 117.169 221.182 117.169C219.918 117.169 218.817 117.368 217.879 117.766C216.942 118.171 216.214 118.739 215.695 119.471C215.177 120.209 214.918 121.076 214.918 122.07C214.918 122.723 215.031 123.316 215.259 123.849C215.486 124.382 215.812 124.833 216.239 125.202C216.665 125.571 217.176 125.834 217.773 125.99V128.505C216.807 128.363 215.937 128.011 215.163 127.45C214.396 126.896 213.785 126.161 213.33 125.245C212.883 124.336 212.659 123.277 212.659 122.07Z" fill="black"/>
<path d="M211.267 136.915C211.523 135.46 212.095 134.245 212.981 133.269C213.866 132.3 214.985 131.617 216.338 131.221C217.691 130.832 219.199 130.785 220.864 131.078C222.542 131.374 223.954 131.937 225.099 132.766C226.242 133.602 227.064 134.627 227.564 135.84C228.063 137.06 228.184 138.398 227.927 139.853C227.671 141.308 227.1 142.52 226.215 143.489C225.329 144.465 224.207 145.147 222.847 145.534C221.487 145.929 219.967 145.978 218.289 145.682C216.624 145.389 215.223 144.825 214.087 143.99C212.949 143.162 212.131 142.137 211.632 140.917C211.132 139.704 211.01 138.37 211.267 136.915ZM213.491 137.307C213.296 138.412 213.419 139.372 213.86 140.185C214.301 140.998 214.952 141.658 215.815 142.163C216.678 142.669 217.648 143.016 218.725 143.206C219.802 143.396 220.836 143.402 221.827 143.223C222.818 143.045 223.663 142.649 224.362 142.037C225.061 141.424 225.508 140.566 225.703 139.461C225.898 138.356 225.772 137.396 225.324 136.581C224.876 135.767 224.217 135.106 223.348 134.599C222.478 134.092 221.504 133.744 220.427 133.554C219.35 133.364 218.32 133.359 217.336 133.539C216.352 133.719 215.514 134.116 214.822 134.729C214.129 135.343 213.686 136.202 213.491 137.307Z" fill="black"/>
<path d="M217.314 162.499L217.486 160.158C217.888 160.153 218.303 160.082 218.732 159.943C219.164 159.813 219.571 159.568 219.952 159.208C220.332 158.847 220.647 158.324 220.898 157.636C221.24 156.695 221.309 155.832 221.103 155.047C220.902 154.271 220.471 153.762 219.81 153.522C219.223 153.308 218.681 153.353 218.186 153.656C217.69 153.959 217.163 154.523 216.606 155.348L215.215 157.427C214.38 158.68 213.497 159.519 212.564 159.943C211.638 160.369 210.638 160.387 209.563 159.996C208.682 159.675 207.987 159.135 207.478 158.375C206.966 157.622 206.674 156.722 206.601 155.675C206.529 154.628 206.71 153.508 207.145 152.313C207.715 150.745 208.528 149.57 209.583 148.79C210.638 148.01 211.869 147.722 213.277 147.924L213.021 150.371C212.116 150.283 211.348 150.461 210.718 150.904C210.086 151.354 209.594 152.063 209.241 153.031C208.841 154.132 208.756 155.091 208.988 155.909C209.223 156.735 209.672 157.269 210.332 157.509C210.866 157.704 211.381 157.679 211.878 157.437C212.381 157.197 212.863 156.722 213.325 156.014L214.859 153.67C215.705 152.383 216.599 151.537 217.54 151.131C218.486 150.734 219.489 150.729 220.55 151.115C221.418 151.431 222.097 151.954 222.587 152.684C223.074 153.421 223.354 154.283 223.426 155.269C223.495 156.261 223.333 157.298 222.94 158.379C222.386 159.901 221.618 160.974 220.634 161.599C219.649 162.23 218.542 162.53 217.314 162.499Z" fill="black"/>
<path d="M197.325 160.529C197.538 160.16 197.758 159.849 197.987 159.595C198.209 159.338 198.38 159.17 198.499 159.091L200.099 160.753C199.658 161.204 199.339 161.643 199.141 162.07C198.944 162.497 198.918 162.962 199.062 163.464C199.198 163.968 199.549 164.56 200.116 165.24L200.988 166.286L218.259 169.27L216.895 171.631L203.344 169.023L203.259 169.171L212.293 179.603L210.93 181.965L198.165 166.574C197.589 165.881 197.177 165.196 196.928 164.519C196.673 163.839 196.581 163.167 196.653 162.503C196.721 161.845 196.945 161.187 197.325 160.529Z" fill="black"/>
<path d="M197.312 192.938L198.274 190.797C198.654 190.93 199.068 191.004 199.519 191.02C199.969 191.047 200.435 190.955 200.916 190.747C201.397 190.539 201.873 190.154 202.343 189.594C202.987 188.827 203.346 188.039 203.422 187.231C203.498 186.433 203.267 185.808 202.728 185.356C202.249 184.954 201.725 184.811 201.156 184.926C200.586 185.041 199.898 185.391 199.092 185.976L197.074 187.453C195.862 188.346 194.745 188.832 193.723 188.911C192.707 188.995 191.761 188.669 190.885 187.934C190.167 187.332 189.698 186.586 189.48 185.698C189.256 184.815 189.289 183.87 189.579 182.861C189.869 181.853 190.423 180.862 191.24 179.888C192.313 178.609 193.478 177.784 194.736 177.412C195.994 177.039 197.25 177.189 198.503 177.861L197.426 180.072C196.606 179.68 195.823 179.585 195.08 179.786C194.332 179.993 193.627 180.491 192.965 181.279C192.211 182.177 191.804 183.05 191.742 183.897C191.681 184.754 191.919 185.409 192.458 185.861C192.893 186.226 193.386 186.38 193.935 186.322C194.49 186.268 195.106 185.987 195.782 185.479L198.025 183.801C199.26 182.881 200.389 182.392 201.413 182.333C202.437 182.283 203.381 182.622 204.246 183.347C204.954 183.941 205.413 184.665 205.624 185.518C205.83 186.377 205.798 187.282 205.528 188.234C205.254 189.19 204.747 190.109 204.008 190.991C202.967 192.231 201.878 192.977 200.74 193.228C199.598 193.484 198.455 193.387 197.312 192.938Z" fill="black"/>
<path d="M187.232 206.884L185.862 205.251L192.358 199.8L193.728 201.433L187.232 206.884ZM194.355 206.025L192.429 207.641L182.403 195.693C181.947 195.149 181.526 194.807 181.139 194.667C180.753 194.538 180.395 194.532 180.067 194.649C179.739 194.777 179.433 194.959 179.15 195.197C178.938 195.375 178.773 195.532 178.655 195.668C178.542 195.809 178.451 195.922 178.383 196.007L176.54 194.605C176.629 194.447 176.77 194.245 176.963 194C177.152 193.749 177.425 193.473 177.784 193.172C178.328 192.715 178.96 192.385 179.678 192.18C180.392 191.981 181.12 191.976 181.865 192.167C182.604 192.363 183.279 192.826 183.891 193.555L194.355 206.025Z" fill="black"/>
<path d="M166.456 200.595C167.821 199.806 169.173 199.428 170.512 199.459C171.847 199.5 173.097 199.91 174.261 200.69C175.422 201.479 176.421 202.6 177.259 204.051C178.097 205.503 178.571 206.935 178.682 208.347C178.789 209.769 178.546 211.066 177.951 212.238C177.354 213.419 176.415 214.379 175.136 215.118C174.398 215.544 173.598 215.842 172.736 216.011C171.875 216.181 170.989 216.159 170.079 215.947C169.172 215.74 168.283 215.286 167.41 214.584C166.538 213.883 165.719 212.87 164.956 211.548L164.423 210.625L175.347 204.319L176.434 206.201L167.724 211.229C168.186 212.029 168.758 212.65 169.44 213.093C170.116 213.539 170.851 213.775 171.644 213.8C172.432 213.829 173.22 213.617 174.007 213.162C174.874 212.661 175.5 212.013 175.885 211.217C176.268 210.43 176.431 209.598 176.375 208.72C176.319 207.842 176.066 207.012 175.615 206.231L174.89 204.976C174.272 203.906 173.564 203.105 172.765 202.574C171.964 202.052 171.119 201.79 170.231 201.786C169.347 201.788 168.465 202.043 167.585 202.551C167.013 202.881 166.543 203.259 166.174 203.686C165.802 204.121 165.541 204.6 165.391 205.121C165.245 205.649 165.221 206.212 165.321 206.81L162.876 207.435C162.686 206.593 162.696 205.751 162.906 204.908C163.12 204.071 163.524 203.28 164.119 202.534C164.717 201.795 165.496 201.149 166.456 200.595Z" fill="black"/>
<path d="M162.085 203.951L167.681 219.328L165.399 220.158L164.524 217.756L164.324 217.829C164.302 218.766 164.017 219.592 163.468 220.305C162.922 221.026 162.148 221.568 161.147 221.933C160.132 222.302 159.204 222.379 158.363 222.164C157.517 221.958 156.754 221.513 156.075 220.831L155.915 220.889C155.81 221.827 155.449 222.672 154.832 223.426C154.216 224.187 153.358 224.767 152.257 225.168C150.882 225.669 149.601 225.647 148.413 225.105C147.228 224.569 146.306 223.396 145.648 221.588L141.902 211.296L144.265 210.437L148.011 220.728C148.424 221.862 149.029 222.56 149.827 222.822C150.625 223.083 151.445 223.06 152.286 222.754C153.367 222.361 154.085 221.729 154.441 220.859C154.8 219.995 154.798 219.066 154.436 218.072L150.792 208.061L153.195 207.186L157.028 217.718C157.346 218.592 157.886 219.193 158.648 219.52C159.412 219.855 160.241 219.859 161.135 219.533C161.749 219.31 162.264 218.938 162.679 218.416C163.087 217.897 163.349 217.288 163.464 216.588C163.576 215.898 163.494 215.175 163.22 214.421L159.722 204.811L162.085 203.951Z" fill="black"/>
<path d="M136.451 211.522C136.969 211.43 137.445 211.538 137.881 211.843C138.318 212.148 138.581 212.56 138.672 213.077C138.764 213.595 138.657 214.072 138.351 214.508C138.046 214.944 137.635 215.207 137.117 215.299C136.599 215.39 136.123 215.283 135.687 214.978C135.25 214.672 134.987 214.261 134.896 213.743C134.835 213.4 134.867 213.07 134.991 212.753C135.109 212.436 135.295 212.165 135.551 211.94C135.801 211.723 136.101 211.583 136.451 211.522Z" fill="black"/>
</svg>
